<?xml version="1.0" encoding="UTF-8" standalone="no"?>
<!-- Created with Inkscape (http://www.inkscape.org/) -->

<svg
   width="100pc"
   height="100pc"
   viewBox="0 0 423.33333 423.33333"
   version="1.1"
   id="svg1"
   inkscape:export-filename="edit.svg"
   inkscape:export-xdpi="96"
   inkscape:export-ydpi="96"
   xmlns:inkscape="http://www.inkscape.org/namespaces/inkscape"
   xmlns:sodipodi="http://sodipodi.sourceforge.net/DTD/sodipodi-0.dtd"
   xmlns="http://www.w3.org/2000/svg"
   xmlns:svg="http://www.w3.org/2000/svg">
  <sodipodi:namedview
     id="namedview1"
     pagecolor="#505050"
     bordercolor="#ffffff"
     borderopacity="1"
     inkscape:showpageshadow="0"
     inkscape:pageopacity="0"
     inkscape:pagecheckerboard="1"
     inkscape:deskcolor="#505050"
     inkscape:document-units="mm" />
  <defs
     id="defs1" />
  <g
     inkscape:label="Layer 1"
     inkscape:groupmode="layer"
     id="layer1">
    <g
       id="g2"
       transform="matrix(0.26458333,0,0,0.26458333,409.39297,213.60143)">
      <path
         d="m -227.96812,-172.23028 c -29.87004,0 -54.06224,24.19222 -54.06224,54.06226 v 729.8489 c 0,29.8025 -24.25967,54.06216 -54.06224,54.06216 h -1027.1825 c -29.8026,0 -54.0623,-24.25966 -54.0623,-54.06216 V -415.50169 c 0,-29.80257 24.2597,-54.06224 54.0623,-54.06224 h 729.84883 c 29.87005,0 54.06225,-24.19221 54.06225,-54.06224 0,-29.87003 -24.1922,-54.06224 -54.06225,-54.06224 h -729.84883 c -89.4061,0 -162.1867,72.78074 -162.1867,162.18672 V 611.68088 c 0,89.4059 72.7806,162.1867 162.1867,162.1867 h 1027.1825 c 89.40598,0 162.1867,-72.7808 162.1867,-162.1867 v -729.8489 c 0,-29.87004 -24.19219,-54.06226 -54.06222,-54.06226 z"
         id="path1"
         style="fill:#6a6a66;fill-opacity:1;stroke-width:17.3" />
      <path
         d="m -5.1798008,-746.43872 c -30.6122082,-30.61219 -71.3621612,-47.50729 -114.6794192,-47.50729 -43.31726,0 -84.0672,16.8944 -114.67941,47.50729 L -991.40991,10.432626 c -5.60898,5.608984 -9.93399,12.434319 -12.63709,19.934692 l -85.7558,238.617742 c -7.0957,19.66482 -2.1624,41.69627 12.6371,56.49461 10.3395,10.33948 24.1248,15.8132 38.2485,15.8132 6.1495,0 12.2991,-1.01367 18.2462,-3.17613 l 238.61769,-85.75567 c 7.50108,-2.70312 14.32642,-7.0281 19.9347,-12.63709 L -5.2472708,-517.14735 c 63.3211518,-63.18448 63.3211518,-166.03941 0.06748,-229.29309 z M -81.610831,-593.5109 -829.97061,154.77968 -949.31235,197.62464 -906.46738,78.282897 -158.10761,-670.00768 c 10.2042,-10.20419 23.78739,-15.81316 38.24839,-15.81316 14.461,0 28.044892,5.60897 38.248389,15.81316 21.08513,21.08513 21.08513,55.41336 0,76.4985 z"
         id="path2"
         style="fill:#6a6a66;fill-opacity:1;stroke-width:17.3" />
    </g>
  </g>
</svg>
