<?xml version="1.0" encoding="UTF-8" standalone="no"?>
<svg
   version="1.1"
   viewBox="-5 -10 12100 18225"
   id="svg2"
   sodipodi:docname="group.svg"
   inkscape:version="1.3.2 (091e20e, 2023-11-25, custom)"
   inkscape:export-filename="group.svg"
   inkscape:export-xdpi="96"
   inkscape:export-ydpi="96"
   width="12100"
   height="18225"
   xmlns:inkscape="http://www.inkscape.org/namespaces/inkscape"
   xmlns:sodipodi="http://sodipodi.sourceforge.net/DTD/sodipodi-0.dtd"
   xmlns="http://www.w3.org/2000/svg"
   xmlns:svg="http://www.w3.org/2000/svg">
  <defs
     id="defs2" />
  <sodipodi:namedview
     id="namedview2"
     pagecolor="#505050"
     bordercolor="#ffffff"
     borderopacity="1"
     inkscape:showpageshadow="0"
     inkscape:pageopacity="0"
     inkscape:pagecheckerboard="1"
     inkscape:deskcolor="#505050"
     inkscape:zoom="8.4222222"
     inkscape:cx="55.032982"
     inkscape:cy="67.5"
     inkscape:window-width="2560"
     inkscape:window-height="1351"
     inkscape:window-x="2551"
     inkscape:window-y="609"
     inkscape:window-maximized="1"
     inkscape:current-layer="svg2" />
  <path
     d="M 50,5 C 25.148,5 5,25.148 5,50 5,74.852 25.148,95 50,95 74.852,95 95,74.852 95,50 95,25.148 74.852,5 50,5 Z m 20.281,21.488 c 6.25,0 11.238,5.0117 11.238,11.262 0,6.2503 -4.9883,11.262 -11.238,11.262 -4.1992,0 -7.7891,-2.1211 -9.7695,-5.3281 3.3984,-3.1289 5.5391,-7.6289 5.5391,-12.609 0,-1.25 -0.12891,-2.4688 -0.39062,-3.6484 1.4102,-0.58984 2.9609,-0.92969 4.6211,-0.92969 z M 48.953,17.2966 c 7.6406,0 13.738,6.1211 13.738,13.781 0,7.6599 -6.1016,13.77 -13.738,13.77 -7.6406,0 -14,-6.1211 -14,-13.77 0,-7.6489 6.1094,-13.781 14,-13.781 z M 15,67.4606 v -0.05078 c -0.19922,-5.6602 0.08984,-9.2188 0.08984,-9.2188 0,-3.0195 6.5898,-5.4492 13.781,-5.6016 -0.67969,1 -1.0586,2.1094 -1.0898,3.3281 -0.10156,1.3281 -0.82812,12.391 1.2188,27.078 -5.9609,-3.8008 -10.828,-9.1797 -14,-15.539 z m 3.2109,-29.711 c 0,-6.25 4.9883,-11.262 11.441,-11.262 0.85156,0 1.6797,0.08984 2.4688,0.28125 -0.33984,1.3711 -0.51953,2.8086 -0.51953,4.3008 0,5.6797 2.6602,10.641 6.8516,13.719 -2.0508,2.5781 -5.2188,4.2188 -8.8008,4.2188 -6.4492,0 -11.441,-5 -11.441,-11.262 z m 46.77,47.141 c -0.07031,0.53906 -0.17188,0.98828 -0.28125,1.3594 -4.5391,1.8398 -9.5,2.8594 -14.699,2.8594 -6.2109,0 -12.078,-1.4492 -17.301,-4.0312 -0.01172,-0.05859 -0.03125,-0.12891 -0.03906,-0.19141 -2.5391,-16.32 -1.5312,-28.82 -1.5312,-28.82 0,-3.8281 8.6602,-6.8906 17.82,-6.8906 9.1602,0 17.559,3.0586 17.559,6.8906 0,0 1.0195,12.5 -1.5312,28.82 z m 19.738,-16.852 v 0.01172 c -3.6484,6.9883 -9.3203,12.73 -16.27,16.449 2.3008,-15.43 1.5312,-27.211 1.4297,-28.59 -0.03906,-1.1992 -0.42188,-2.3086 -1.1016,-3.3008 0.5,-0.03906 1.0117,-0.05078 1.5117,-0.05078 7.2891,0 14.359,2.5 14.359,5.6289 0,0 0.30859,3.8203 0.07812,9.8398 z"
     id="path1"
     style="fill:#6a6a66;fill-opacity:1;fill-rule:nonzero"
     inkscape:export-filename="path1.svg"
     inkscape:export-xdpi="96"
     inkscape:export-ydpi="96" />
</svg>
