<?xml version="1.0" encoding="UTF-8" standalone="no"?>
<!-- Created with Inkscape (http://www.inkscape.org/) -->

<svg
   width="47.503078"
   height="48.812019"
   viewBox="0 0 12.568522 12.914847"
   version="1.1"
   id="svg1"
   inkscape:export-filename="group2.svg"
   inkscape:export-xdpi="96"
   inkscape:export-ydpi="96"
   xmlns:inkscape="http://www.inkscape.org/namespaces/inkscape"
   xmlns:sodipodi="http://sodipodi.sourceforge.net/DTD/sodipodi-0.dtd"
   xmlns="http://www.w3.org/2000/svg"
   xmlns:svg="http://www.w3.org/2000/svg">
  <sodipodi:namedview
     id="namedview1"
     pagecolor="#505050"
     bordercolor="#ffffff"
     borderopacity="1"
     inkscape:showpageshadow="0"
     inkscape:pageopacity="0"
     inkscape:pagecheckerboard="1"
     inkscape:deskcolor="#505050"
     inkscape:document-units="mm" />
  <defs
     id="defs1" />
  <g
     inkscape:label="Layer 1"
     inkscape:groupmode="layer"
     id="layer1"
     transform="translate(-0.32193808,-0.14095826)">
    <path
       d="m 6.6061993,0.14095825 c -3.470588,0 -6.28426122,2.89120355 -6.28426122,6.45742315 0,3.5662196 2.81367322,6.4574236 6.28426122,6.4574236 3.4705877,0 6.2842617,-2.891204 6.2842617,-6.4574236 0,-3.5662196 -2.813674,-6.45742315 -6.2842617,-6.45742315 z M 9.4384461,3.2244495 c 0.8728139,0 1.5693899,0.7191704 1.5693899,1.6160778 0,0.8969073 -0.696618,1.6160778 -1.5693899,1.6160778 -0.5864196,0 -1.0877497,-0.3043743 -1.3643131,-0.7645734 0.4745873,-0.4489918 0.7735364,-1.094734 0.7735364,-1.8093699 0,-0.1793727 -0.018004,-0.3542686 -0.05455,-0.5235392 C 8.990054,3.2744817 9.20661,3.2257137 9.4384572,3.2257137 Z M 6.4599854,1.9054993 c 1.0670119,0 1.9185151,0.8783675 1.9185151,1.97755 0,1.0991825 -0.8520902,1.9759715 -1.9185151,1.9759715 -1.0670116,0 -1.9551035,-0.8783675 -1.9551035,-1.9759715 0,-1.0976041 0.8531793,-1.97755 1.9551035,-1.97755 z M 1.7184405,9.1039474 v -0.00728 c -0.027821,-0.8122293 0.012546,-1.3228821 0.012546,-1.3228821 0,-0.433293 0.9202672,-0.7819509 1.92452,-0.80382 C 3.5605879,7.113457 3.5076731,7.272654 3.503316,7.4475354 3.4891331,7.6381155 3.3876688,9.2256227 3.6735217,11.333182 2.8410805,10.787774 2.1613887,10.015911 1.7184182,9.1033621 Z m 0.448403,-4.2634775 c 0,-0.8968643 0.6966173,-1.6160778 1.5977385,-1.6160778 0.1189206,0 0.2345706,0.012892 0.3447686,0.040359 -0.047459,0.1967506 -0.072553,0.4030294 -0.072553,0.6171575 0,0.8150273 0.3714975,1.5269653 0.9568276,1.9686531 -0.2863948,0.369953 -0.7288067,0.6053906 -1.2290339,0.6053906 -0.9006323,0 -1.5977386,-0.7174914 -1.5977386,-1.6160777 z m 6.5314424,6.7646541 c -0.00982,0.07736 -0.024005,0.141816 -0.039279,0.195071 -0.6338863,0.264008 -1.326677,0.410319 -2.0527187,0.410319 -0.8673537,0 -1.6866957,-0.207958 -2.416089,-0.578471 -0.00164,-0.0084 -0.00436,-0.0185 -0.00545,-0.02747 C 3.8301575,9.2626863 3.9709111,7.4689575 3.9709111,7.4689575 c 0,-0.5493258 1.209399,-0.9887893 2.4885673,-0.9887893 1.2792242,0 2.452119,0.4389039 2.452119,0.9887893 0,0 0.1423736,1.7937288 -0.2138324,4.1356205 z M 11.454702,9.1868898 v 0.00168 C 10.945202,10.191377 10.15312,11.015302 9.1825924,11.548972 9.5039001,9.3347957 9.3964249,7.6442423 9.3822505,7.4463582 9.3767983,7.2742749 9.3233351,7.115078 9.2284118,6.972699 c 0.069826,-0.00561 0.1412842,-0.00728 0.2111095,-0.00728 1.0179247,0 2.0052377,0.3587458 2.0052377,0.8077377 0,0 0.04309,0.5482067 0.01091,1.4119945 z"
       id="path1"
       style="fill:#6a6a66;fill-opacity:1;fill-rule:nonzero;stroke-width:0.141561"
       inkscape:export-filename="path1.svg"
       inkscape:export-xdpi="96"
       inkscape:export-ydpi="96" />
  </g>
</svg>
