<?xml version="1.0" encoding="UTF-8" standalone="no"?>
<!-- Created with Inkscape (http://www.inkscape.org/) -->

<svg
   width="100pc"
   height="100pc"
   viewBox="0 0 423.33332 423.33333"
   version="1.1"
   id="svg1"
   xmlns:inkscape="http://www.inkscape.org/namespaces/inkscape"
   xmlns:sodipodi="http://sodipodi.sourceforge.net/DTD/sodipodi-0.dtd"
   xmlns="http://www.w3.org/2000/svg"
   xmlns:svg="http://www.w3.org/2000/svg">
  <sodipodi:namedview
     id="namedview1"
     pagecolor="#505050"
     bordercolor="#ffffff"
     borderopacity="1"
     inkscape:showpageshadow="0"
     inkscape:pageopacity="0"
     inkscape:pagecheckerboard="1"
     inkscape:deskcolor="#505050"
     inkscape:document-units="mm" />
  <defs
     id="defs1" />
  <g
     inkscape:label="Layer 1"
     inkscape:groupmode="layer"
     id="layer1">
    <path
       d="M 211.54535,6.3620287 C 97.610223,6.3620287 4.7383541,99.233901 4.7383541,213.16901 c 0,64.49404 29.6998759,122.2015 76.3387569,160.18584 0.194419,0.19442 0.370078,0.37008 0.564497,0.37008 35.534152,28.95972 80.656912,46.25089 129.921982,46.25089 49.26524,0 94.38799,-17.29117 129.92215,-46.25089 0.19441,0 0.37008,-0.19442 0.56449,-0.37008 46.62081,-37.98434 76.33876,-95.6918 76.33876,-160.18584 0,-113.935109 -92.87187,-206.8069813 -206.80698,-206.8069813 z M 177.13917,225.77179 C 156.4639,213.733 142.53891,191.36561 142.53891,165.78998 c 0,-37.98434 31.02192,-69.006274 69.00644,-69.006274 37.98433,0 69.00626,31.021934 69.00626,69.006274 0,25.75164 -14.10083,48.13709 -34.77609,59.98181 -10.15276,5.64037 -21.8034,9.02445 -34.21226,9.02445 -12.40872,0 -24.25342,-3.38408 -34.40602,-9.02445 z M 96.112174,361.51013 c -0.194419,-3.01401 -0.370078,-6.20435 -0.370078,-9.39452 0,-48.50701 30.087874,-91.56774 75.210794,-108.48883 12.21463,6.39843 25.94555,9.95868 40.61053,9.95868 14.66482,0 28.39574,-3.57816 40.61053,-9.95868 45.12276,16.92109 75.21062,59.98182 75.21062,108.48883 0,3.19034 -0.19442,6.39843 -0.37008,9.39452 -31.77999,24.81758 -71.82653,39.67647 -115.43316,39.67647 -43.6247,0 -83.67125,-14.85889 -115.433171,-39.67647 z"
       id="path1"
       style="fill:#6a6a66;fill-opacity:1;stroke-width:4.51228" />
  </g>
</svg>
